<?xml version="1.0" encoding="utf-8"?><svg viewBox="0 0 512.01 512.01" xmlns="http://www.w3.org/2000/svg" xmlns:xlink="http://www.w3.org/1999/xlink"><style>:root>svg{display:none}:root>svg:target{display:block}</style><svg id="copyright" viewBox="0 0 443.294 443.294" xmlns="http://www.w3.org/2000/svg"><style>path{fill:#fff}</style><path d="M221.647 443.294C99.433 443.294 0 343.861 0 221.647S99.433 0 221.647 0s221.647 99.433 221.647 221.647-99.433 221.647-221.647 221.647zm0-415.588c-106.941 0-193.941 87-193.941 193.941s87 193.941 193.941 193.941 193.941-87 193.941-193.941-87-193.941-193.941-193.941z"/><path d="M221.647 332.471c-61.107 0-110.824-49.716-110.824-110.824s49.716-110.824 110.824-110.824c30.046 0 58.158 11.824 79.181 33.293l-19.805 19.372c-15.76-16.099-36.837-24.96-59.376-24.96-45.834 0-83.118 37.284-83.118 83.118s37.284 83.118 83.118 83.118c22.525 0 43.602-8.861 59.376-24.96l19.778 19.4c-21.01 21.456-49.121 33.266-79.154 33.267z"/></svg><svg version="1.1" id="down-arrow" x="0" y="0" viewBox="0 0 512.011 512.011" xml:space="preserve" xmlns="http://www.w3.org/2000/svg"><style>.barr{fill:#fff}</style><path class="barr" d="M505.755 123.592c-8.341-8.341-21.824-8.341-30.165 0L256.005 343.176 36.421 123.592c-8.341-8.341-21.824-8.341-30.165 0s-8.341 21.824 0 30.165l234.667 234.667a21.275 21.275 0 0015.083 6.251 21.275 21.275 0 0015.083-6.251l234.667-234.667c8.34-8.341 8.34-21.824-.001-30.165z"/></svg><svg viewBox="0 0 24 24" id="github" xmlns="http://www.w3.org/2000/svg"><path d="M12 .5C5.37.5 0 5.78 0 12.292c0 5.211 3.438 9.63 8.205 11.188.6.111.82-.254.82-.567 0-.28-.01-1.022-.015-2.005-3.338.711-4.042-1.582-4.042-1.582-.546-1.361-1.335-1.725-1.335-1.725-1.087-.731.084-.716.084-.716 1.205.082 1.838 1.215 1.838 1.215 1.07 1.803 2.809 1.282 3.495.981.108-.763.417-1.282.76-1.577-2.665-.295-5.466-1.309-5.466-5.827 0-1.287.465-2.339 1.235-3.164-.135-.298-.54-1.497.105-3.121 0 0 1.005-.316 3.3 1.209.96-.262 1.98-.392 3-.398 1.02.006 2.04.136 3 .398 2.28-1.525 3.285-1.209 3.285-1.209.645 1.624.24 2.823.12 3.121.765.825 1.23 1.877 1.23 3.164 0 4.53-2.805 5.527-5.475 5.817.42.354.81 1.077.81 2.182 0 1.578-.015 2.846-.015 3.229 0 .309.21.678.825.56C20.565 21.917 24 17.495 24 12.292 24 5.78 18.627.5 12 .5z"/></svg><svg viewBox="0 0 24 24" id="google" xmlns="http://www.w3.org/2000/svg"><path d="M21.823 9h-2.187v2.177h-2.177v2.187h2.177v2.177h2.187v-2.177H24v-2.187h-2.177zM7.5 19.5c4.328 0 7.203-3.038 7.203-7.326 0-.491-.051-.87-.122-1.248h-7.08v2.578h4.257c-.174 1.095-1.289 3.233-4.257 3.233-2.557 0-4.645-2.118-4.645-4.737s2.087-4.738 4.645-4.738c1.463 0 2.435.624 2.988 1.156l2.036-1.954C11.214 5.237 9.526 4.5 7.5 4.5 3.356 4.5 0 7.856 0 12s3.356 7.5 7.5 7.5z"/></svg><svg viewBox="0 0 24 24" id="instagram" xmlns="http://www.w3.org/2000/svg"><path d="M12.004 5.838a6.157 6.157 0 00-6.158 6.158 6.157 6.157 0 006.158 6.158 6.157 6.157 0 006.158-6.158 6.157 6.157 0 00-6.158-6.158zm0 10.155a3.996 3.996 0 113.997-3.997 3.995 3.995 0 01-3.997 3.997z"/><path d="M16.948.076c-2.208-.103-7.677-.098-9.887 0-1.942.091-3.655.56-5.036 1.941C-.283 4.325.012 7.435.012 11.996c0 4.668-.26 7.706 2.013 9.979 2.317 2.316 5.472 2.013 9.979 2.013 4.624 0 6.22.003 7.855-.63 2.223-.863 3.901-2.85 4.065-6.419.104-2.209.098-7.677 0-9.887-.198-4.213-2.459-6.768-6.976-6.976zm3.495 20.372c-1.513 1.513-3.612 1.378-8.468 1.378-5 0-7.005.074-8.468-1.393-1.685-1.677-1.38-4.37-1.38-8.453 0-5.525-.567-9.504 4.978-9.788 1.274-.045 1.649-.06 4.856-.06l.045.03c5.329 0 9.51-.558 9.761 4.986.057 1.265.07 1.645.07 4.847-.001 4.942.093 6.959-1.394 8.453z"/><circle cx="18.406" cy="5.595" r="1.439"/></svg><svg viewBox="0 0 24 24" id="telegram" xmlns="http://www.w3.org/2000/svg"><path d="M9.417 15.181l-.397 5.584c.568 0 .814-.244 1.109-.537l2.663-2.545 5.518 4.041c1.012.564 1.725.267 1.998-.931L23.93 3.821l.001-.001c.321-1.496-.541-2.081-1.527-1.714l-21.29 8.151c-1.453.564-1.431 1.374-.247 1.741l5.443 1.693L18.953 5.78c.595-.394 1.136-.176.691.218z"/></svg><svg viewBox="0 0 24 24" id="vk" xmlns="http://www.w3.org/2000/svg"><path d="M19.915 13.028c-.388-.49-.277-.708 0-1.146.005-.005 3.208-4.431 3.538-5.932l.002-.001c.164-.547 0-.949-.793-.949h-2.624c-.668 0-.976.345-1.141.731 0 0-1.336 3.198-3.226 5.271-.61.599-.892.791-1.225.791-.164 0-.419-.192-.419-.739V5.949c0-.656-.187-.949-.74-.949H9.161c-.419 0-.668.306-.668.591 0 .622.945.765 1.043 2.515v3.797c0 .832-.151.985-.486.985-.892 0-3.057-3.211-4.34-6.886-.259-.713-.512-1.001-1.185-1.001H.9c-.749 0-.9.345-.9.731 0 .682.892 4.073 4.148 8.553C6.318 17.343 9.374 19 12.154 19c1.671 0 1.875-.368 1.875-1.001 0-2.922-.151-3.198.686-3.198.388 0 1.056.192 2.616 1.667C19.114 18.217 19.407 19 20.405 19h2.624c.748 0 1.127-.368.909-1.094-.499-1.527-3.871-4.668-4.023-4.878z"/></svg><svg viewBox="0 0 24 24" id="whatsapp" xmlns="http://www.w3.org/2000/svg"><path d="M17.507 14.307l-.009.075c-2.199-1.096-2.429-1.242-2.713-.816-.197.295-.771.964-.944 1.162-.175.195-.349.21-.646.075-.3-.15-1.263-.465-2.403-1.485-.888-.795-1.484-1.77-1.66-2.07-.293-.506.32-.578.878-1.634.1-.21.049-.375-.025-.524-.075-.15-.672-1.62-.922-2.206-.24-.584-.487-.51-.672-.51-.576-.05-.997-.042-1.368.344-1.614 1.774-1.207 3.604.174 5.55 2.714 3.552 4.16 4.206 6.804 5.114.714.227 1.365.195 1.88.121.574-.091 1.767-.721 2.016-1.426.255-.705.255-1.29.18-1.425-.074-.135-.27-.21-.57-.345z"/><path d="M20.52 3.449C12.831-3.984.106 1.407.101 11.893c0 2.096.549 4.14 1.595 5.945L0 24l6.335-1.652c7.905 4.27 17.661-1.4 17.665-10.449 0-3.176-1.24-6.165-3.495-8.411zm1.482 8.417c-.006 7.633-8.385 12.4-15.012 8.504l-.36-.214-3.75.975 1.005-3.645-.239-.375c-4.124-6.565.614-15.145 8.426-15.145a9.865 9.865 0 017.021 2.91 9.788 9.788 0 012.909 6.99z"/></svg></svg>